<svg width="141" height="58" viewBox="0 0 141 58" fill="none" xmlns="http://www.w3.org/2000/svg"><path fill-rule="evenodd" clip-rule="evenodd" d="M133.352 23.348C130.806 25.21 132.257 27 136.314 27C138.174 27 140.016 26.482 140.408 25.848C141.14 24.664 138.306 22 136.314 22C135.699 22 134.367 22.607 133.352 23.348ZM123.481 24.667C123.114 25.033 122.814 26.308 122.814 27.499C122.814 29.506 122.421 29.632 117.455 29.22C112.636 28.82 111.784 29.064 108.991 31.638C104.512 35.766 103.965 39.241 107.273 42.55C109.565 44.841 110.49 45.12 114.118 44.612C116.426 44.289 120.146 44.036 122.386 44.049L126.458 44.074L128.147 36.287C129.077 32.004 130.109 27.487 130.442 26.25C130.984 24.235 130.688 24 127.597 24C125.7 24 123.847 24.3 123.481 24.667ZM65.943 28.964C60.91 30.208 58.512 33.126 58.405 38.137C58.287 43.646 60.862 45.235 69.077 44.727C76.159 44.289 79.944 41.767 81.249 36.617C82.0359 33.513 81.8769 32.626 80.249 31.038C77.982 28.825 70.747 27.776 65.943 28.964ZM26.416 35.534C24.288 44.003 24.288 44 28.295 44C31.283 44 31.859 43.611 32.364 41.25C33.388 36.463 34.723 34 36.293 34C38.035 34 38.219 36.102 36.884 40.757L35.954 44H39.716C43.409 44 43.496 43.912 44.396 39.25C45.148 35.357 45.737 34.44 47.657 34.168C49.521 33.904 49.895 34.211 49.482 35.668C49.197 36.676 48.669 38.962 48.309 40.75C47.669 43.931 47.731 44 51.215 44C54.284 44 54.861 43.62 55.392 41.25C55.731 39.737 56.359 37.107 56.788 35.405C57.921 30.905 56.445 29 51.823 29C49.683 29 47.64 29.472 47.284 30.049C46.862 30.732 46.229 30.759 45.468 30.128C44.825 29.594 40.636 29.158 36.158 29.158H28.017L26.416 35.534ZM84.213 31.843C83.887 33.304 83.216 36.075 82.7229 38C81.3079 43.518 81.515 44 85.295 44C88.283 44 88.859 43.611 89.364 41.25C90.567 35.628 91.6909 34 94.3719 34C96.7739 34 96.9229 34.249 96.3189 37.25C95.9589 39.038 95.4339 41.317 95.1509 42.316C94.7089 43.878 95.1709 44.087 98.4579 43.816C102.206 43.506 102.301 43.397 103.48 38.062C105.321 29.734 104.623 29.091 93.8009 29.142C84.8929 29.185 84.8 29.211 84.213 31.843ZM131.236 31.75C130.897 33.263 130.216 36.075 129.723 38C128.312 43.503 128.519 44 132.234 44C135.647 44 135.657 43.987 137.234 37.053C138.103 33.232 138.814 29.857 138.814 29.553C138.814 29.249 137.248 29 135.333 29C132.352 29 131.764 29.395 131.236 31.75ZM73.638 35.298C74.1339 37.91 71.983 40 68.799 40C65.408 40 64.4529 37.96 66.486 35.058C68.351 32.396 73.118 32.556 73.638 35.298ZM119.232 33.607C122.991 35.049 119.874 40.431 115.629 39.827C112.809 39.425 112.156 36.801 114.335 34.621C116.109 32.848 116.853 32.694 119.232 33.607Z" fill="#000"/><path d="M30.5 19L27 0L4.75027 21.0136C1.7887 23.8107 -0.165269 28.2818 2.19443 31.6023C3.62346 33.6133 5.75105 34.64 9.10371 35.3287C9.66994 35.445 10.2585 35.292 10.7088 34.9295L30.5 19Z" fill="#EA6608"/><path d="M19 39.5L0.5 33L0.9596 37.5041C2.08715 48.554 11.9478 56.6052 23 55.5L19 39.5Z" fill="#EA6608"/></svg>