<svg width="38" height="38" viewBox="0 0 38 38" fill="none" xmlns="http://www.w3.org/2000/svg"><path d="M35.7005 15.1949L35.7014 15.1962C36.4449 16.2357 37.288 17.4145 37.288 18.9258C37.288 20.4373 36.4452 21.6157 35.7016 22.6554C35.3047 23.2104 34.9297 23.7348 34.7879 24.1711C34.6312 24.6538 34.6246 25.2901 34.6174 25.9932C34.6046 27.2419 34.5897 28.7015 33.7274 29.8863C32.8552 31.0848 31.4659 31.5478 30.2839 31.9417C29.6216 32.1623 29.0244 32.3613 28.6198 32.6559C28.2301 32.9393 27.8636 33.4372 27.4542 33.9933C26.5146 35.2695 25.3494 36.8521 23.1615 36.8521C22.2265 36.8521 21.3059 36.5645 20.4745 36.3048C19.7899 36.0909 19.1658 35.896 18.644 35.896C18.1192 35.896 17.4983 36.0904 16.8169 36.3038C15.6272 36.6763 14.2528 37.1067 12.8817 36.6617C11.4532 36.1981 10.5773 35.0052 9.83844 33.999C9.4299 33.4426 9.06328 32.9433 8.66832 32.656C8.26942 32.3657 7.67501 32.1668 7.01406 31.9457C5.82904 31.5493 4.43014 31.0813 3.56067 29.8864C2.69711 28.6999 2.68309 27.2462 2.67107 25.9994C2.66428 25.2956 2.65812 24.6578 2.50013 24.1712C2.35838 23.735 1.9836 23.2109 1.58679 22.656C0.843166 21.6163 0 20.4374 0 18.9259C0 17.4144 0.842834 16.236 1.58646 15.1963L1.58748 15.1949C1.98404 14.6403 2.35855 14.1166 2.50013 13.6806C2.65687 13.1979 2.66339 12.5616 2.67059 11.8585C2.68339 10.6097 2.69835 9.15016 3.56067 7.96528C4.43177 6.76827 5.82122 6.30489 7.0035 5.91061C7.66607 5.68964 8.26357 5.49038 8.66832 5.19585C9.06181 4.90946 9.42833 4.41078 9.83701 3.85475C10.577 2.84798 11.4552 1.65317 12.8818 1.19008C14.2542 0.744281 15.623 1.17379 16.8107 1.54646C17.4927 1.76047 18.115 1.95574 18.644 1.95574C19.169 1.95574 19.7899 1.76126 20.4714 1.54782C21.6611 1.17523 23.0353 0.744834 24.4062 1.19008C25.8333 1.65329 26.7097 2.84619 27.449 3.85252C27.8578 4.40898 28.2247 4.90839 28.6196 5.19585C29.0185 5.48609 29.6129 5.68493 30.2738 5.90602C31.4588 6.30245 32.8578 6.77045 33.7273 7.96528C34.5906 9.15161 34.6047 10.6051 34.6167 11.8518C34.6235 12.5558 34.6297 13.1938 34.7878 13.6806C34.9294 14.1166 35.3039 14.6403 35.7005 15.1949Z" fill="#C1C1C1"/><path d="M23.708 22.8711L23.5557 28H12.2441C12.2441 26.4596 12.3669 25.2663 12.6123 24.4199C12.8662 23.5736 13.2767 22.7526 13.8438 21.957C14.4193 21.1615 15.2191 20.2897 16.2432 19.3418C17.5889 18.1061 18.4733 17.2005 18.8965 16.625C19.3281 16.041 19.5439 15.3851 19.5439 14.6572C19.5439 14.1156 19.3831 13.6712 19.0615 13.3242C18.7399 12.9688 18.3379 12.791 17.8555 12.791C17.153 12.791 16.6325 13.083 16.2939 13.667C15.9639 14.2425 15.7734 15.1862 15.7227 16.498L12.4854 16.3457C12.4854 14.6445 12.7393 13.3623 13.2471 12.499C13.7549 11.6357 14.4447 11.0094 15.3164 10.6201C16.1882 10.2308 17.1361 10.0361 18.1602 10.0361C19.8444 10.0361 21.1647 10.5016 22.1211 11.4326C23.0859 12.3636 23.5684 13.5231 23.5684 14.9111C23.5684 15.6559 23.4202 16.3457 23.124 16.9805C22.8363 17.6068 22.4681 18.1357 22.0195 18.5674C21.5794 18.9906 20.7965 19.6042 19.6709 20.4082C17.9782 21.6185 16.916 22.5791 16.4844 23.29C16.0527 24.001 15.7988 24.6273 15.7227 25.1689H20.8643V22.8711H23.708Z" fill="#fff"/></svg>